<svg viewBox="0 0 400 300" xmlns="http://www.w3.org/2000/svg"><path d="m209.53 40.41h26.18v4.14h-26.18z" fill="#e6e6e6"/><path d="m215.91 36.25h19.8v4.14h-19.8z" fill="#c9c9c9"/><ellipse cx="199.6" cy="261.91" fill="#e6e6e6" opacity=".45" rx="136.64" ry="19.65"/><path d="m264.09 77.19v18.37h11.87l2.59 7.31 3.07-7.31h11.87v-18.37z" fill="#e6e6e6"/><path d="m277.31 90.48a.93.93 0 0 1 -.69-.35l-3.1-4a.9.9 0 0 1 .16-1.28.91.91 0 0 1 1.29.16l2.44 3.14 6-6.5a.9.9 0 0 1 1.29 0 .91.91 0 0 1 .05 1.3l-6.75 7.23a.91.91 0 0 1 -.69.3z" opacity=".12"/><path d="m105.59 81.46v18.37h11.87l2.6 7.31 3.07-7.31h11.87v-18.37z" fill="#e6e6e6"/><path d="m118.81 94.75a.93.93 0 0 1 -.69-.35l-3.1-4a.92.92 0 0 1 1.45-1.13l2.44 3.14 6-6.5a.91.91 0 0 1 1.3 0 .93.93 0 0 1 0 1.3l-6.76 7.29a.89.89 0 0 1 -.64.25z" opacity=".12"/><path d="m140.15 44.57h119.7v214.67h-119.7z" fill="#c9c9c9"/><path d="m150.05 69.04h99.08v151.08h-99.08z" fill="#fff"/><circle cx="200.36" cy="239.47" fill="#fff" opacity=".56" r="11.71"/><path d="m189.87 52.96h33.56v4.89h-33.56z" opacity=".12"/><circle cx="177.72" cy="55.94" fill="#fff" r="5.47"/><path d="m273.33 122.13a24.52 24.52 0 0 0 0 6.52 2 2 0 0 0 2.34 1.53 4.36 4.36 0 0 0 3.55-3.12l1.32-3.38a3.54 3.54 0 0 0 -1.38-3.83c-2.11-1.68-5.64-.1-5.83 2.28z" fill="#f4a28c"/><path d="m140 190.64.52 10.86 10.5-2.18 4.47-18.94a17.76 17.76 0 0 1 15.35-13.58c8-.87 17.92-1.69 24.25-1.25 11.93.83 37.13-2 45.6 5.24s9.36 26.76 19.18 33.92v-13.59l-2.87-36.57-10.83-3.69-38.34 5.69-4.09.7-4.24 2.3-9-4.5-51.83-2.17z" opacity=".08"/><path d="m280.33 124.3 1.46 12.77-7.1.3 1.79-9.42z" fill="#f4a28c"/><path d="m127.71 137.51 67.36 15.26-1.23 5.73s-33.68-.85-58.85 4-7.28-24.99-7.28-24.99z" fill="#68e1fd"/><path d="m127.71 137.51 67.36 15.26-1.23 5.73s-33.68-.85-58.85 4-7.28-24.99-7.28-24.99z" opacity=".08"/><path d="m273.13 124.6-1.13 1.46a.64.64 0 0 0 .35 1l1.49.35z" fill="#f4a28c"/><path d="m271.84 137.51-67.09 16.49 1.8 3.64s32.83 0 58 4.8 7.29-24.93 7.29-24.93z" fill="#f4a28c"/><path d="m276 130a4.64 4.64 0 0 0 2.35-1.27 7.33 7.33 0 0 1 -2.88 4.55z" fill="#ce8172" opacity=".31"/><path d="m241.38 159.36 1.72-14.77 23.71-6.1 2.71 24.51a69.41 69.41 0 0 1 -28.14-3.64z" fill="#68e1fd"/><path d="m241.38 159.36 1.72-14.77 23.71-6.1 2.71 24.51a69.41 69.41 0 0 1 -28.14-3.64z" opacity=".08"/><path d="m266.81 138.49s30.44-6.81 41.34-.7-10.5 63.71-10.5 63.71l-33.6-1.06s-29.41-56.1 2.76-61.95z" fill="#68e1fd"/><path d="m273.61 255.59s-1.57 2.82-4.31 2.61-3.88 2.32-1.56 3.4 9.11-1 9.11-1l.58-5z" fill="#68e1fd"/><path d="m298.23 255s1.12 3 3.86 3.24 3.48 2.89 1 3.6-8.84-2.4-8.84-2.4l.18-5z" fill="#68e1fd"/><path d="m264.05 200.44 8.59 55.15h5.62s-5.2-41.48 3.89-46.48 10.85 46.48 10.85 46.48l6-.48-.07-56.86z" fill="#24285b"/><g fill="#f4a28c"><path d="m126.21 122.13a24.07 24.07 0 0 1 0 6.52 2 2 0 0 1 -2.34 1.53 4.33 4.33 0 0 1 -3.54-3.12l-1.33-3.38a3.53 3.53 0 0 1 1.39-3.83c2.11-1.68 5.61-.1 5.82 2.28z"/><path d="m119.21 124.3-1.45 12.77 7.1.3-1.8-9.42z"/><path d="m126.41 124.6 1.16 1.46a.63.63 0 0 1 -.35 1l-1.49.35z"/></g><path d="m123.54 130a4.64 4.64 0 0 1 -2.35-1.27 7.32 7.32 0 0 0 2.89 4.55z" fill="#ce8172" opacity=".31"/><path d="m132.73 138.49s-30.44-6.81-41.34-.7 10.5 63.71 10.5 63.71l33.61-1.06s29.4-56.1-2.77-61.95z" fill="#68e1fd"/><path d="m125.94 255.59s1.56 2.82 4.3 2.61 3.89 2.32 1.56 3.4-9.1-1-9.1-1l-.58-5z" fill="#68e1fd"/><path d="m101.31 255s-1.11 3-3.85 3.24-3.49 2.89-1 3.6 8.85-2.4 8.85-2.4l-.19-5z" fill="#68e1fd"/><path d="m106.3 143.13s9.62 6.23 4.72 20.46-5.69 24.43 5.86 20.86 10.7-19.5 10.7-19.5l11.78 1.82 1.14 22.61-5 11.06-29.2-1.84-11.89-3-4.41-14.94 8.08-25.27z" opacity=".08"/><path d="m135.5 200.44-8.6 55.15h-5.62s5.21-41.48-3.88-46.48-10.88 46.48-10.88 46.48l-6-.48.06-56.86z" fill="#24285b"/><path d="m100.37 136s-18.93-3.19-18.93 26.6 4.55 56.31 48.25 29.74l-3.32-5.07s-23.54 10.36-28.55 1.26 19.66-47.53 2.55-52.53z" fill="#68e1fd"/><path d="m100.37 136s-18.93-3.19-18.93 26.6 4.55 56.31 48.25 29.74l-3.32-5.07s-23.54 10.36-28.55 1.26 19.66-47.53 2.55-52.53z" fill="#fff" opacity=".46"/><path d="m131.72 164.12h16.53v24.74h-16.53z" fill="#ffd200" transform="matrix(-.96978692 -.24395355 .24395355 -.96978692 232.68 381.81)"/><path d="m297.14 144.59s-7.31 5.8-2.87 18.42.23 34-12.48 36.31l17.13-1.07 8.68-28.68z" opacity=".08"/><path d="m125.46 122.3a7.21 7.21 0 0 1 -.89.23 6.58 6.58 0 0 0 -1.23.41l-.32.14a1.27 1.27 0 0 0 -.76 1.17 3.45 3.45 0 0 1 -3.41 3.8s-3.09-4.61-.62-8.15a8.17 8.17 0 0 1 6.21-3.31 2.94 2.94 0 0 1 1.02 5.71z" fill="#24285b"/><path d="m122.2 126.42a1 1 0 0 0 .14-1c-.22-.52-.65-1.22-1.37-1.12s-.87 1.28-.36 2a1 1 0 0 0 1.59 0z" fill="#f4a28c"/><path d="m271.39 118.11a6.19 6.19 0 0 1 1 2.54 1.75 1.75 0 0 0 2.31 1.67c3-.52 2 5.13 5.93 4.49a2.77 2.77 0 0 0 2.58-2.06 4.14 4.14 0 0 1 2.19-2.78c.83-.4 1.47-1.21 1.08-2.82-.87-3.64-3.69.89-4.68-3s-2.64-3.28-3.44-2.58-1.62 1.75-2.88.47-5.85 1.26-4.09 4.07z" fill="#24285b"/><path d="m277.35 126.42a1 1 0 0 1 -.14-1c.22-.52.65-1.22 1.36-1.12s.87 1.28.37 2a1 1 0 0 1 -1.59 0z" fill="#f4a28c"/><path d="m194.89 153.61 2.6.78a4.11 4.11 0 0 1 2.88 3.09c.28 1.36.3 2.85-.77 3.3-2.1.87-5.48-3.58-5.48-3.58z" fill="#f4a28c"/><path d="m206.17 153.61-2.44.73a4.4 4.4 0 0 0 -3.1 3.5c-.21 1.25-.14 2.53.83 2.94 2.1.87 5.48-3.58 5.48-3.58z" fill="#f4a28c"/><circle cx="199.5" cy="114.74" fill="#24285b" r="28.39"/><path d="m189.11 115.05 6.85 11.16 13.94-19.89" fill="none" stroke="#fff" stroke-linecap="round" stroke-linejoin="round" stroke-width="5"/><path d="m305.21 136.47c6.43.56 14.58 6.14 20.14 27.28l-19.5 7-8.3-24.33a7.53 7.53 0 0 1 7.66-9.95z" fill="#68e1fd"/><path d="m305.21 136.47c6.43.56 14.58 6.14 20.14 27.28l-19.5 7-8.3-24.33a7.53 7.53 0 0 1 7.66-9.95z" fill="#fff" opacity=".46"/><path d="m115.23 136.48s.44-5 6.31-3.2 6.17 4.23 6.17 4.23z" fill="#68e1fd"/><path d="m115.23 136.48s.44-5 6.31-3.2 6.17 4.23 6.17 4.23z" fill="#fff" opacity=".46"/><path d="m324.3 163.75 4.52 16.09a15.36 15.36 0 0 1 -10 18.74l-13.68 3.42a4.33 4.33 0 0 0 -3.14 3c-.42 1.45-1.14 3-2.33 2.91-4.93-.44-.23-7.45-.23-7.45l13.36-8.34a7.77 7.77 0 0 0 2.8-10.12l-6.37-12.38z" fill="#f4a28c"/><path d="m177.72 174.79h45.07v20.76h-45.07z" fill="#ffd200"/><path d="m186.02 203.36h28.69v6.09h-28.69z" fill="#c9c9c9" opacity=".34"/><path d="m127 188.27s3.21-4.87 6.23-2.41-4.36 5.26-4.36 5.26z" fill="#f4a28c"/><path d="m194.26 178.26h24.03v5.16h-24.03z" fill="#fff" opacity=".46"/><path d="m233.49 35.3s-7.32-2-8.91-8.81c0 0 11.34-2.29 11.66 9.41z" fill="#68e1fd" opacity=".58"/><path d="m234.39 34.57s-5.11-8.08-.61-15.64c0 0 8.62 5.48 4.79 15.66z" fill="#68e1fd" opacity=".73"/><path d="m235.71 34.58s2.7-8.54 10.86-10.16c0 0 1.53 5.55-5.28 10.18z" fill="#68e1fd"/><path d="m230.4 34.38 1.48 10.15 9.34.04 1.38-10.13z" fill="#24285b"/></svg>